<?xml version="1.0" standalone="no"?>
<!DOCTYPE svg PUBLIC "-//W3C//DTD SVG 20010904//EN"
 "http://www.w3.org/TR/2001/REC-SVG-20010904/DTD/svg10.dtd">
<svg version="1.0" xmlns="http://www.w3.org/2000/svg"
 width="260.000000pt" height="260.000000pt" viewBox="0 0 260.000000 260.000000"
 preserveAspectRatio="xMidYMid meet">
<metadata>
Created by potrace 1.11, written by Peter Selinger 2001-2013
</metadata>
<g transform="translate(0.000000,260.000000) scale(0.100000,-0.100000)"
fill="#000000" stroke="none">
<path d="M1262 2432 c-39 -6 -84 -63 -177 -227 -92 -161 -116 -203 -160 -277
-14 -24 -43 -74 -66 -113 -22 -38 -44 -77 -49 -85 -18 -29 -166 -286 -173
-300 -4 -8 -18 -33 -32 -55 -14 -22 -44 -74 -67 -115 -23 -41 -44 -77 -47 -80
-4 -3 -19 -30 -35 -60 -17 -30 -42 -75 -57 -100 -28 -47 -206 -354 -316 -544
-67 -117 -74 -145 -47 -202 16 -32 96 -89 109 -76 3 3 13 7 21 8 11 2 14 -3
10 -14 -5 -14 -4 -14 8 1 8 10 17 14 20 8 7 -10 24 -10 43 2 6 4 14 1 16 -5 4
-10 6 -9 6 1 1 11 4 11 18 0 9 -8 14 -9 10 -3 -3 6 0 11 8 11 8 0 11 -5 8 -11
-4 -6 1 -5 10 3 13 10 20 11 31 2 11 -9 16 -9 21 0 6 8 10 7 16 -2 6 -9 9 -10
9 -2 0 12 24 12 36 0 4 -4 13 -2 21 4 10 9 13 8 13 -1 0 -9 3 -10 13 -1 10 8
17 7 27 -2 10 -9 11 -9 6 0 -5 9 -2 11 8 7 9 -3 13 -11 9 -17 -3 -6 -1 -7 6
-3 6 4 9 12 6 17 -4 5 -2 9 4 9 5 0 12 -4 15 -9 7 -10 25 -9 43 2 8 5 13 3 13
-5 0 -10 2 -10 9 1 5 7 14 10 20 7 6 -4 8 -12 5 -18 -4 -7 -2 -8 5 -4 6 4 9
12 6 17 -4 5 -2 9 4 9 5 0 12 -6 14 -12 4 -10 6 -10 6 0 1 8 6 10 14 5 18 -11
36 -12 43 -2 3 6 12 5 22 -3 9 -7 13 -8 9 -2 -3 6 0 11 8 11 8 0 11 -5 8 -11
-4 -6 1 -5 10 3 13 10 20 11 31 2 11 -9 16 -9 21 0 6 8 10 7 16 -2 6 -9 9 -10
9 -2 0 12 24 12 36 0 4 -4 13 -2 21 4 10 9 13 8 13 -1 0 -10 3 -10 14 -1 10 9
16 9 21 1 5 -8 11 -7 23 2 14 11 15 10 9 -7 -7 -20 -7 -20 8 0 14 17 17 18 25
5 9 -13 10 -13 10 0 0 12 2 13 9 1 7 -11 9 -11 14 0 4 12 7 11 16 -1 6 -8 11
-10 11 -4 0 6 7 11 15 11 10 0 14 -6 10 -16 -4 -12 -2 -12 9 2 10 14 15 15 19
5 4 -11 6 -11 6 0 1 8 6 10 14 5 18 -11 36 -12 43 -2 3 6 12 5 22 -3 9 -7 13
-8 9 -2 -3 6 0 11 8 11 8 0 11 -5 8 -11 -4 -6 1 -5 10 3 13 10 20 11 31 2 11
-9 16 -9 21 0 6 8 10 7 16 -2 6 -9 9 -10 9 -2 0 12 24 12 36 0 4 -4 13 -2 21
4 10 9 13 8 13 -2 0 -10 3 -10 12 -1 9 9 15 9 27 -1 12 -9 13 -9 7 0 -5 9 -2
11 8 7 9 -3 13 -11 9 -17 -3 -6 -1 -7 6 -3 6 4 9 12 6 17 -4 5 -2 9 4 9 5 0
12 -4 15 -9 7 -10 25 -9 44 2 7 5 12 3 12 -5 0 -10 2 -10 9 1 5 7 14 10 20 7
6 -4 8 -12 5 -18 -4 -7 -2 -8 5 -4 6 4 9 12 6 17 -4 5 -2 9 4 9 5 0 12 -6 14
-12 4 -10 6 -10 6 0 1 8 6 10 14 5 18 -11 36 -12 43 -2 3 6 12 5 22 -3 9 -7
13 -8 9 -2 -3 6 0 11 8 11 8 0 11 -5 8 -11 -4 -6 1 -5 10 3 13 10 20 11 31 2
11 -9 16 -9 21 0 6 8 10 7 16 -2 6 -9 9 -10 9 -2 0 12 24 12 36 0 4 -4 13 -2
21 4 10 9 13 8 13 -1 0 -10 3 -10 14 -1 10 9 16 9 21 1 5 -8 11 -7 23 2 14 11
15 10 9 -7 l-7 -20 16 20 c12 15 18 17 21 6 5 -11 7 -11 14 0 7 12 9 11 9 -1
0 -13 1 -13 10 0 9 13 11 13 20 0 5 -8 10 -10 10 -4 0 6 7 11 15 11 10 0 14
-6 10 -16 -4 -12 -2 -12 9 2 10 14 15 15 19 5 4 -11 6 -11 6 0 1 8 6 10 14 5
18 -11 36 -12 43 -2 3 6 12 5 22 -3 9 -7 13 -8 9 -2 -3 6 0 11 8 11 8 0 11 -5
8 -11 -4 -6 1 -5 10 3 13 10 20 11 31 2 11 -9 16 -9 21 0 6 8 10 7 16 -2 6 -9
9 -10 9 -2 0 12 24 12 36 0 4 -4 13 -2 21 4 10 9 13 8 13 -1 0 -10 3 -10 14
-1 9 8 16 8 20 2 4 -6 17 -4 34 5 15 7 32 14 38 14 14 0 54 43 54 58 0 7 4 12
9 12 18 0 4 78 -23 125 -18 33 -23 51 -16 60 7 8 5 12 -5 12 -8 0 -11 -5 -8
-11 4 -7 1 -7 -7 0 -6 7 -13 23 -13 37 -1 14 -6 25 -11 24 -5 -1 -15 9 -22 23
-10 19 -10 28 -1 40 10 13 10 13 -5 2 -17 -14 -35 -1 -23 18 3 6 2 10 -3 10
-5 0 -15 12 -23 28 -8 15 -16 29 -19 32 -11 11 -31 46 -41 72 -6 16 -15 28
-21 28 -5 0 -6 5 -3 10 3 6 1 10 -5 10 -6 0 -8 5 -5 10 3 6 2 10 -3 10 -5 0
-17 15 -26 33 -8 17 -24 45 -35 61 -11 17 -18 33 -15 38 3 4 0 8 -7 8 -7 0 -9
3 -6 6 4 4 -2 15 -13 24 -13 12 -18 24 -13 35 4 13 3 16 -5 11 -7 -4 -12 -1
-12 8 0 9 -4 16 -10 16 -5 0 -10 6 -10 14 0 7 -7 19 -15 26 -8 7 -12 16 -9 21
3 5 0 9 -6 9 -7 0 -9 7 -6 17 4 10 4 14 0 10 -11 -10 -36 31 -28 46 4 6 4 9
-1 5 -7 -7 -74 94 -78 117 -1 6 -4 12 -7 15 -9 9 -40 59 -40 65 0 4 5 3 12 -1
7 -4 8 -3 4 5 -4 6 -12 9 -17 5 -6 -3 -15 8 -22 25 -6 17 -15 31 -19 31 -4 0
-8 5 -8 11 0 6 -16 39 -37 72 -20 33 -36 66 -36 74 0 7 -3 11 -5 8 -9 -9 -53
75 -46 87 4 6 3 8 -3 5 -5 -3 -18 11 -29 31 -10 20 -25 42 -33 48 -8 6 -11 18
-8 28 4 10 3 15 -3 11 -11 -7 -32 29 -23 39 3 3 1 6 -5 6 -11 0 -28 38 -24 53
1 5 -1 6 -5 4 -9 -6 -34 18 -27 25 2 3 -7 22 -21 42 -14 21 -22 42 -19 48 4 7
2 8 -4 4 -7 -4 -12 -1 -12 8 0 9 -4 16 -10 16 -5 0 -10 5 -10 11 0 5 4 8 9 4
5 -3 13 -1 16 5 4 6 3 10 -2 9 -24 -4 -44 3 -40 14 2 6 -3 18 -12 25 -13 11
-13 12 -1 6 8 -4 5 3 -8 16 -13 12 -21 29 -18 37 3 8 2 11 -4 8 -12 -7 -33 32
-24 47 5 7 3 8 -6 3 -10 -6 -12 -4 -7 9 4 10 3 15 -3 11 -12 -7 -33 32 -24 47
4 7 3 8 -4 4 -7 -4 -12 -3 -12 2 0 14 -47 62 -54 55 -3 -4 -6 -2 -6 4 0 12
-51 20 -88 15z"/>
<path d="M2530 219 c0 -5 5 -7 10 -4 6 3 10 8 10 11 0 2 -4 4 -10 4 -5 0 -10
-5 -10 -11z"/>
<path d="M2480 205 c0 -2 6 -8 13 -14 10 -8 14 -7 14 2 0 8 -6 14 -14 14 -7 0
-13 -1 -13 -2z"/>
</g>
</svg>
